# xmcd
#
# Track frame offsets:
#	150
#	27933
#	45709
#	69828
#
# Disc length: 1145 seconds
#
# Revision: 0
# Processed by: cddbd v1.4PL0 Copyright (c) Steve Scherf et al.
# Submitted via: audiograbber 1.80
#
DISCID=2a047704
DTITLE=Sophie - Dancing Crowd
DYEAR=1900
DGENRE=
TTITLE0=Remember
TTITLE1=Don't go
TTITLE2=Moving on
TTITLE3=Cut out my heart
EXTD=
EXTT0=
EXTT1=
EXTT2=
EXTT3=
PLAYORDER=
